<svg xmlns="http://www.w3.org/2000/svg" viewBox="0 0 100 100">
  <circle cx="50" cy="50" r="48" fill="#DC0A2D" stroke="#333" stroke-width="3"/>
  <path d="M 50 5 A 45 45 0 0 1 95 50 L 70 50 A 20 20 0 0 0 30 50 L 5 50 A 45 45 0 0 1 50 5" fill="#DC0A2D" stroke="#333" stroke-width="2"/>
  <path d="M 50 95 A 45 45 0 0 1 5 50 L 30 50 A 20 20 0 0 0 70 50 L 95 50 A 45 45 0 0 1 50 95" fill="#fff" stroke="#333" stroke-width="2"/>
  <rect x="5" y="47" width="90" height="6" fill="#333"/>
  <circle cx="50" cy="50" r="12" fill="#fff" stroke="#333" stroke-width="3"/>
  <circle cx="50" cy="50" r="6" fill="#fff" stroke="#333" stroke-width="2"/>
</svg>
